<svg width="26" height="26" viewBox="0 0 26 26" fill="none" xmlns="http://www.w3.org/2000/svg">
<g clip-path="url(#clip0)">
<path d="M25.3177 20.0589L20.0552 16.5494C19.3874 16.1076 18.4922 16.253 17.9985 16.8834L16.4656 18.8544C16.2686 19.1141 15.9105 19.1895 15.6255 19.0312L15.3339 18.8704C14.3673 18.3435 13.1645 17.6876 10.7413 15.2635C8.31799 12.8393 7.66072 11.6357 7.13384 10.6708L6.97396 10.3792C6.81346 10.0943 6.88739 9.73466 7.14725 9.53608L9.11686 8.00363C9.74706 7.50985 9.89263 6.61492 9.45136 5.94689L5.94188 0.684396C5.48964 0.00412967 4.58231 -0.200082 3.88219 0.220781L1.68161 1.54267C0.990173 1.94917 0.482893 2.6075 0.26614 3.37972C-0.526286 6.26702 0.0698479 11.25 7.41031 18.5914C13.2495 24.4301 17.5965 26.0003 20.5843 26.0003C21.2719 26.0032 21.9569 25.9137 22.6207 25.7343C23.3931 25.5178 24.0515 25.0104 24.4577 24.3188L25.7809 22.1195C26.2024 21.4193 25.9983 20.5114 25.3177 20.0589ZM25.0344 21.675L23.7142 23.8755C23.4225 24.3748 22.9489 24.7418 22.3927 24.8998C19.7272 25.6316 15.0705 25.0255 8.02335 17.9783C0.97621 10.9312 0.370124 6.27484 1.10193 3.60896C1.26014 3.05208 1.62764 2.5779 2.12745 2.28575L4.32804 0.965581C4.63182 0.782795 5.02562 0.871395 5.22186 1.16659L7.12826 4.02876L8.72834 6.42863C8.91996 6.71839 8.857 7.10676 8.58364 7.32118L6.61356 8.85363C6.01403 9.31207 5.84282 10.1416 6.21194 10.7999L6.36838 11.0841C6.92212 12.0997 7.61056 13.3631 10.124 15.8761C12.6374 18.389 13.9004 19.0775 14.9155 19.6312L15.2001 19.7881C15.8584 20.1571 16.6879 19.986 17.1464 19.3864L18.6788 17.4164C18.8933 17.1432 19.2815 17.0802 19.5714 17.2717L24.8334 20.7811C25.1288 20.9772 25.2174 21.3712 25.0344 21.675Z" fill="black"/>
<path d="M14.7326 4.3355C18.7986 4.34002 22.0936 7.63508 22.0982 11.7011C22.0982 11.9404 22.2921 12.1343 22.5314 12.1343C22.7707 12.1343 22.9647 11.9404 22.9647 11.7011C22.9596 7.15669 19.277 3.47397 14.7326 3.46899C14.4933 3.46899 14.2993 3.66295 14.2993 3.90225C14.2993 4.14154 14.4933 4.3355 14.7326 4.3355Z" fill="black"/>
<path d="M14.7326 6.93535C17.3635 6.93845 19.4954 9.07044 19.4985 11.7013C19.4985 11.9406 19.6925 12.1346 19.9318 12.1346C20.1711 12.1346 20.365 11.9406 20.365 11.7013C20.3614 8.59205 17.8418 6.0724 14.7326 6.06885C14.4933 6.06885 14.2993 6.2628 14.2993 6.5021C14.2993 6.7414 14.4933 6.93535 14.7326 6.93535Z" fill="black"/>
<path d="M14.7326 9.53496C15.9284 9.53638 16.8975 10.5055 16.8989 11.7013C16.8989 11.9406 17.0929 12.1346 17.3322 12.1346C17.5714 12.1346 17.7654 11.9406 17.7654 11.7013C17.7635 10.0271 16.4068 8.67034 14.7326 8.66846C14.4933 8.66846 14.2993 8.86241 14.2993 9.10171C14.2993 9.34101 14.4933 9.53496 14.7326 9.53496Z" fill="black"/>
</g>
<defs>
<clipPath id="clip0">
<rect width="26" height="26" fill="white"/>
</clipPath>
</defs>
</svg>
