<svg width="27" height="27" viewBox="0 0 27 27" fill="none" xmlns="http://www.w3.org/2000/svg">
<path d="M13.5 4.4022C13.8229 4.4022 14.087 4.13807 14.087 3.81525V3.52177C14.087 3.19894 13.8229 2.93481 13.5 2.93481C13.1772 2.93481 12.9131 3.19894 12.9131 3.52177V3.81525C12.9131 4.13807 13.1772 4.4022 13.5 4.4022Z" fill="black"/>
<path d="M13.5 22.5979C13.1772 22.5979 12.9131 22.862 12.9131 23.1849V23.4783C12.9131 23.8012 13.1772 24.0653 13.5 24.0653C13.8229 24.0653 14.087 23.8012 14.087 23.4783V23.1849C14.087 22.862 13.8229 22.5979 13.5 22.5979Z" fill="black"/>
<path d="M3.81525 12.9131H3.52177C3.19894 12.9131 2.93481 13.1772 2.93481 13.5C2.93481 13.8229 3.19894 14.087 3.52177 14.087H3.81525C4.13807 14.087 4.4022 13.8229 4.4022 13.5C4.4022 13.1772 4.13807 12.9131 3.81525 12.9131Z" fill="black"/>
<path d="M23.4783 12.9131H23.1849C22.862 12.9131 22.5979 13.1772 22.5979 13.5C22.5979 13.8229 22.862 14.087 23.1849 14.087H23.4783C23.8012 14.087 24.0653 13.8229 24.0653 13.5C24.0653 13.1772 23.8012 12.9131 23.4783 12.9131Z" fill="black"/>
<path d="M6.86746 6.04572C6.63267 5.81093 6.2805 5.81093 6.04572 6.04572C5.81093 6.2805 5.81093 6.63267 6.04572 6.86745L6.25115 7.07289C6.36854 7.19028 6.51528 7.24898 6.66202 7.24898C6.80876 7.24898 6.9555 7.19028 7.07289 7.07289C7.30768 6.83811 7.30768 6.48593 7.07289 6.25115L6.86746 6.04572Z" fill="black"/>
<path d="M6.25115 19.9271L6.04572 20.1325C5.81093 20.3673 5.81093 20.7195 6.04572 20.9542C6.16311 21.0716 6.30985 21.1303 6.45659 21.1303C6.60333 21.1303 6.75007 21.0716 6.86746 20.9542L7.07289 20.7488C7.30768 20.514 7.30768 20.1618 7.07289 19.9271C6.83811 19.6923 6.48593 19.6923 6.25115 19.9271Z" fill="black"/>
<path d="M20.1325 6.04572L19.9271 6.25115C19.6923 6.48593 19.6923 6.83811 19.9271 7.07289C20.0445 7.19028 20.1912 7.24898 20.3379 7.24898C20.4847 7.24898 20.6314 7.19028 20.7488 7.07289L20.9542 6.86745C21.189 6.63267 21.189 6.2805 20.9542 6.04572C20.7194 5.81093 20.3673 5.81093 20.1325 6.04572Z" fill="black"/>
<path d="M14.087 13.2652V7.92387C14.087 7.60104 13.8229 7.33691 13.5 7.33691C13.1772 7.33691 12.9131 7.60104 12.9131 7.92387V13.5C12.9131 13.6467 12.9718 13.7934 13.0892 13.9108L19.5163 20.338C19.6337 20.4554 19.7805 20.5141 19.9272 20.5141C20.0739 20.5141 20.2207 20.4554 20.3381 20.338C20.5729 20.1032 20.5729 19.751 20.3381 19.5163L14.087 13.2652Z" fill="black"/>
<path d="M13.5 0C6.04565 0 0 6.04565 0 13.5C0 20.9543 6.04565 27 13.5 27C20.9543 27 27 20.9543 27 13.5C27 6.04565 20.9543 0 13.5 0ZM13.5 25.8261C6.6913 25.8261 1.17391 20.3087 1.17391 13.5C1.17391 6.6913 6.6913 1.17391 13.5 1.17391C20.3087 1.17391 25.8261 6.6913 25.8261 13.5C25.8261 20.3087 20.3087 25.8261 13.5 25.8261Z" fill="black"/>
</svg>
