<svg width="24" height="32" viewBox="0 0 24 32" fill="none" xmlns="http://www.w3.org/2000/svg">
<path d="M11.9999 0C5.48169 0 0.178955 5.30274 0.178955 11.8209C0.178955 13.9668 1.14132 16.2747 1.18165 16.372C1.49247 17.1098 2.10577 18.2557 2.54801 18.9274L10.653 31.208C10.9847 31.7114 11.4756 32 11.9999 32C12.5242 32 13.0151 31.7114 13.3468 31.2087L21.4525 18.9274C21.8954 18.2557 22.508 17.1098 22.8188 16.372C22.8592 16.2754 23.8209 13.9675 23.8209 11.8209C23.8209 5.30274 18.5181 0 11.9999 0ZM21.5366 15.8324C21.2592 16.4937 20.6883 17.5597 20.2913 18.1618L12.1856 30.4431C12.0256 30.6858 11.9749 30.6858 11.8149 30.4431L3.70925 18.1618C3.3122 17.5597 2.74132 16.493 2.46387 15.8317C2.45205 15.8032 1.56965 13.6789 1.56965 11.8209C1.56965 6.06971 6.24866 1.3907 11.9999 1.3907C17.7511 1.3907 22.4301 6.06971 22.4301 11.8209C22.4301 13.6817 21.5457 15.8116 21.5366 15.8324Z" fill="black"/>
<path d="M11.9999 5.56348C8.54883 5.56348 5.7417 8.3713 5.7417 11.8216C5.7417 15.272 8.54883 18.0798 11.9999 18.0798C15.4509 18.0798 18.258 15.272 18.258 11.8216C18.258 8.3713 15.4509 5.56348 11.9999 5.56348ZM11.9999 16.6891C9.3165 16.6891 7.1324 14.5057 7.1324 11.8216C7.1324 9.13757 9.3165 6.95418 11.9999 6.95418C14.6832 6.95418 16.8673 9.13757 16.8673 11.8216C16.8673 14.5057 14.6832 16.6891 11.9999 16.6891Z" fill="black"/>
</svg>
