<svg width="33" height="34" viewBox="0 0 33 34" fill="none" xmlns="http://www.w3.org/2000/svg">
<path d="M31.6622 27.3376H1.33784C1.21957 27.3376 1.10614 27.2906 1.02251 27.207C0.938875 27.1234 0.891891 27.01 0.891891 26.8917V7.10952C0.891891 6.99125 0.938875 6.87782 1.02251 6.79419C1.10614 6.71056 1.21957 6.66357 1.33784 6.66357H31.6622C31.7804 6.66357 31.8939 6.71056 31.9775 6.79419C32.0611 6.87782 32.1081 6.99125 32.1081 7.10952V26.8917C32.1081 27.01 32.0611 27.1234 31.9775 27.207C31.8939 27.2906 31.7804 27.3376 31.6622 27.3376ZM1.78378 26.4457H31.2162V7.55547H1.78378V26.4457Z" fill="black"/>
<path d="M16.5 19.5455C14.8559 19.5485 13.2727 18.9232 12.0744 17.7974L1.03236 7.42378C0.989669 7.38366 0.955296 7.33553 0.931205 7.28213C0.907114 7.22873 0.893777 7.17111 0.891955 7.11256C0.888275 6.9943 0.931723 6.87943 1.01274 6.79321C1.09376 6.70699 1.2057 6.65648 1.32396 6.6528C1.44221 6.64912 1.55709 6.69257 1.64331 6.77359L12.6849 17.1472C13.7193 18.1155 15.0831 18.6543 16.5 18.6543C17.9169 18.6543 19.2807 18.1155 20.3151 17.1472L31.3567 6.77359C31.4429 6.69257 31.5578 6.64912 31.6761 6.6528C31.7943 6.65648 31.9063 6.70699 31.9873 6.79321C32.0683 6.87943 32.1117 6.9943 32.1081 7.11256C32.1044 7.23081 32.0539 7.34276 31.9676 7.42378L20.9256 17.7978C19.7273 18.9235 18.1441 19.5487 16.5 19.5455Z" fill="black"/>
<path d="M1.33783 27.3354C1.24618 27.3354 1.15673 27.3072 1.08167 27.2546C1.00661 27.202 0.949583 27.1276 0.918343 27.0414C0.887104 26.9552 0.883172 26.8615 0.907084 26.7731C0.930996 26.6846 0.98159 26.6056 1.05198 26.5469L12.2038 17.2329C12.2486 17.1948 12.3006 17.166 12.3567 17.1481C12.4127 17.1302 12.4718 17.1236 12.5304 17.1286C12.5891 17.1336 12.6462 17.1502 12.6984 17.1774C12.7506 17.2046 12.7969 17.2419 12.8346 17.287C12.8723 17.3322 12.9007 17.3844 12.9182 17.4406C12.9357 17.4968 12.9418 17.5559 12.9363 17.6145C12.9308 17.6732 12.9138 17.7301 12.8862 17.7821C12.8586 17.8341 12.8209 17.8801 12.7755 17.9174L1.62368 27.2315C1.54352 27.2985 1.44235 27.3353 1.33783 27.3354Z" fill="black"/>
<path d="M31.6622 27.3354C31.5576 27.3353 31.4565 27.2985 31.3763 27.2315L20.2245 17.9174C20.1791 17.8801 20.1414 17.8341 20.1138 17.7821C20.0862 17.7301 20.0692 17.6732 20.0637 17.6145C20.0582 17.5559 20.0643 17.4968 20.0818 17.4406C20.0993 17.3844 20.1277 17.3322 20.1654 17.287C20.2031 17.2419 20.2494 17.2046 20.3016 17.1774C20.3538 17.1502 20.4109 17.1336 20.4696 17.1286C20.5282 17.1236 20.5873 17.1302 20.6433 17.1481C20.6994 17.166 20.7514 17.1948 20.7962 17.2329L31.948 26.5469C32.0184 26.6056 32.069 26.6846 32.0929 26.7731C32.1168 26.8615 32.1129 26.9552 32.0816 27.0414C32.0504 27.1276 31.9934 27.202 31.9183 27.2546C31.8433 27.3072 31.7538 27.3354 31.6622 27.3354Z" fill="black"/>
</svg>
